<svg width="165" height="41" viewBox="0 0 165 41" fill="none" xmlns="http://www.w3.org/2000/svg">
<g clip-path="url(#clip0)">
<path d="M62.8276 8.07742V6.68836H65.8627V18.4607H62.8276V17.0716C61.9178 18.2176 60.6398 18.7871 58.9869 18.7871C57.4172 18.7871 56.0698 18.1898 54.9377 16.9952C53.8265 15.7867 53.2639 14.3074 53.2639 12.571C53.2639 10.8417 53.8195 9.3762 54.9377 8.16771C56.0698 6.95922 57.4172 6.35498 58.9869 6.35498C60.6329 6.36193 61.9108 6.93144 62.8276 8.07742ZM60.5565 29.8024L65.4321 35.7615H61.8969L57.6117 30.4136V35.7615H54.5766V23.9892H57.6117V29.1704L61.6608 23.9892H65.2863L60.5565 29.8024ZM73.7943 23.6627C75.3778 23.6627 76.7322 24.267 77.8434 25.4755C78.9755 26.6839 79.5381 28.1494 79.5381 29.8788C79.5381 31.636 78.9755 33.1153 77.8434 34.303C76.746 35.4975 75.3917 36.0948 73.7943 36.0948C72.1482 36.0948 70.8773 35.5184 69.9813 34.3724V40.4704H66.9462V23.9892H69.9813V25.3782C70.8703 24.2322 72.1482 23.6627 73.7943 23.6627ZM70.8981 32.2749C71.5093 32.8861 72.2871 33.1917 73.2317 33.1917C74.1763 33.1917 74.9542 32.8861 75.5653 32.2749C76.1904 31.6498 76.5099 30.8442 76.5099 29.8718C76.5099 28.8995 76.1974 28.1077 75.5653 27.4965C74.9542 26.8715 74.1763 26.552 73.2317 26.552C72.2871 26.552 71.5162 26.8645 70.8981 27.4965C70.2869 28.1077 69.9813 28.8995 69.9813 29.8718C69.9813 30.8511 70.2869 31.6498 70.8981 32.2749ZM93.1301 31.122H84.247C84.6429 32.5944 85.7472 33.3376 87.5669 33.3376C88.7267 33.3376 89.6088 32.9486 90.2061 32.1569L92.6578 33.5668C91.4979 35.2475 89.7824 36.0879 87.5252 36.0879C85.5805 36.0879 84.0178 35.4975 82.8371 34.3238C81.6564 33.1431 81.073 31.6637 81.073 29.8718C81.073 28.1147 81.6564 26.6353 82.8163 25.4477C83.9622 24.2531 85.4555 23.6558 87.289 23.6558C89.0323 23.6558 90.4492 24.2531 91.5535 25.4477C92.6856 26.6423 93.2481 28.1147 93.2481 29.8718C93.2412 30.2052 93.2065 30.6219 93.1301 31.122ZM84.2053 28.7675H90.213C90.0394 27.9966 89.6921 27.4063 89.1643 27.0034C88.6364 26.5936 88.0114 26.3922 87.289 26.3922C86.4695 26.3922 85.7958 26.6006 85.261 27.0173C84.7262 27.434 84.372 28.0174 84.2053 28.7675ZM105.493 23.9892V32.9139H107.048V38.9216H104.083V35.7684H96.7833V38.9216H93.8176V32.9139H95.2553C95.929 31.9068 96.2693 30.5178 96.2693 28.7467V23.9892H105.493ZM98.4988 32.9139H102.527V26.7187H99.228V28.7467C99.228 30.4414 98.985 31.8304 98.4988 32.9139ZM111.945 30.6775L117.48 23.9892H119.738V35.7615H116.772V29.0731L111.237 35.7615H108.979V23.9892H111.945V30.6775ZM121.363 23.9892H131.795V26.9062H128.121V35.7615H125.085V26.9062H121.363V23.9892ZM57.2227 14.9811C57.8339 15.5923 58.6118 15.8979 59.5564 15.8979C60.5009 15.8979 61.2719 15.5923 61.89 14.9811C62.5151 14.356 62.8346 13.5503 62.8346 12.578C62.8346 11.6056 62.522 10.8139 61.89 10.2027C61.2788 9.57761 60.5009 9.25813 59.5564 9.25813C58.6118 9.25813 57.8339 9.57066 57.2227 10.2027C56.6116 10.8139 56.306 11.6056 56.306 12.578C56.299 13.5503 56.6046 14.349 57.2227 14.9811ZM77.0933 12.4391C78.1907 12.9739 78.7394 13.8698 78.7394 15.12C78.7394 16.127 78.3921 16.9327 77.7045 17.5439C77.0169 18.1551 76.0515 18.4607 74.8083 18.4607H68.62V6.68836H74.343C75.5653 6.68836 76.5238 6.99395 77.2183 7.59819C77.9059 8.20244 78.2532 9.00809 78.2532 10.0152C78.2462 11.05 77.8642 11.8557 77.0933 12.4391ZM74.0582 9.18867H71.4676V11.307H74.0582C74.9194 11.307 75.35 10.9528 75.35 10.2444C75.35 9.54288 74.9194 9.18867 74.0582 9.18867ZM71.4676 15.8979H74.461C75.3431 15.8979 75.7806 15.5228 75.7806 14.7658C75.7806 14.4393 75.6626 14.1754 75.4264 13.9879C75.1903 13.8004 74.8708 13.7031 74.461 13.7031H71.4676V15.8979ZM79.1908 6.68836H89.6227V9.60539H85.9486V18.4607H82.9135V9.61234H79.1908V6.68836ZM100.805 17.0022C99.61 18.1968 98.1376 18.7941 96.3805 18.7941C94.6233 18.7941 93.1439 18.1968 91.9563 17.0022C90.7617 15.8076 90.1644 14.3352 90.1644 12.578C90.1644 10.8347 90.7617 9.36925 91.9563 8.17466C93.1648 6.96617 94.6441 6.36193 96.3805 6.36193C98.1237 6.36193 99.5961 6.96617 100.805 8.17466C102.013 9.38314 102.617 10.8486 102.617 12.578C102.617 14.3213 102.013 15.7937 100.805 17.0022ZM94.0955 14.9116C94.7066 15.5228 95.4706 15.8284 96.3805 15.8284C97.2903 15.8284 98.0543 15.5228 98.6655 14.9116C99.2767 14.3004 99.5823 13.5226 99.5823 12.578C99.5823 11.6334 99.2767 10.8555 98.6655 10.2444C98.0543 9.63317 97.2903 9.32758 96.3805 9.32758C95.4706 9.32758 94.7066 9.63317 94.0955 10.2444C93.4982 10.8694 93.1995 11.6473 93.1995 12.578C93.1995 13.5017 93.4982 14.2796 94.0955 14.9116ZM111.66 12.4599C112.855 13.0433 113.452 13.974 113.452 15.2589C113.452 16.2937 113.028 17.1411 112.181 17.8009C111.334 18.4607 110.174 18.7871 108.695 18.7871C106.305 18.7871 104.68 17.8425 103.819 15.9604L106.291 14.5018C106.666 15.5714 107.479 16.1062 108.715 16.1062C109.278 16.1062 109.715 15.9951 110.021 15.7798C110.327 15.5575 110.479 15.2589 110.479 14.8838C110.479 14.1615 110.014 13.8004 109.09 13.8004H107.417V11.2098H108.688C109.597 11.2098 110.056 10.8486 110.056 10.1263C110.056 9.77902 109.924 9.50816 109.653 9.2998C109.389 9.09838 109.035 8.9942 108.59 8.9942C107.583 8.9942 106.854 9.48732 106.403 10.4805L103.951 9.0706C104.847 7.26482 106.375 6.36193 108.542 6.36193C109.889 6.36193 110.959 6.70919 111.744 7.39678C112.542 8.08437 112.945 8.91086 112.945 9.86931C112.959 11.0153 112.528 11.8765 111.66 12.4599ZM124.308 8.07742V6.68836H127.343V18.4607H124.308V17.0716C123.398 18.2176 122.12 18.7871 120.467 18.7871C118.897 18.7871 117.55 18.1898 116.418 16.9952C115.306 15.7867 114.744 14.3074 114.744 12.571C114.744 10.8417 115.3 9.3762 116.418 8.16771C117.55 6.95922 118.897 6.35498 120.467 6.35498C122.12 6.36193 123.398 6.93144 124.308 8.07742ZM118.703 14.9811C119.314 15.5923 120.092 15.8979 121.036 15.8979C121.981 15.8979 122.759 15.5923 123.37 14.9811C123.995 14.356 124.315 13.5503 124.315 12.578C124.315 11.6056 124.002 10.8139 123.37 10.2027C122.759 9.57761 121.981 9.25813 121.036 9.25813C120.092 9.25813 119.321 9.57066 118.703 10.2027C118.092 10.8139 117.786 11.6056 117.786 12.578C117.786 13.5503 118.092 14.349 118.703 14.9811ZM130.878 6.68836H140.205V18.4607H137.17V9.61234H133.92V13.5434C133.92 17.1688 132.267 18.8079 128.954 18.4676V15.62C129.579 15.7798 130.058 15.6687 130.392 15.2936C130.718 14.9186 130.885 14.2796 130.885 13.3836V6.68836H130.878ZM152.992 17.0022C151.797 18.1968 150.325 18.7941 148.568 18.7941C146.81 18.7941 145.331 18.1968 144.143 17.0022C142.949 15.8076 142.352 14.3352 142.352 12.578C142.352 10.8347 142.949 9.36925 144.143 8.17466C145.352 6.96617 146.831 6.36193 148.568 6.36193C150.311 6.36193 151.783 6.96617 152.992 8.17466C154.2 9.38314 154.805 10.8486 154.805 12.578C154.805 14.3213 154.2 15.7937 152.992 17.0022ZM146.276 14.9116C146.887 15.5228 147.651 15.8284 148.561 15.8284C149.47 15.8284 150.234 15.5228 150.846 14.9116C151.457 14.3004 151.762 13.5226 151.762 12.578C151.762 11.6334 151.457 10.8555 150.846 10.2444C150.234 9.63317 149.47 9.32758 148.561 9.32758C147.651 9.32758 146.887 9.63317 146.276 10.2444C145.678 10.8694 145.38 11.6473 145.38 12.578C145.387 13.5017 145.685 14.2796 146.276 14.9116ZM156.944 6.68836H165V9.60539H159.986V18.4607H156.951V6.68836H156.944Z" fill="black"/>
<path d="M4.71587 36.1081C2.11138 36.1081 0 33.9897 0 31.3852V16.7028C0 14.9526 0 13.1955 0 11.4452C0 11.2299 0.0138906 11.0216 0.0486172 10.8132C0.298649 9.20884 1.47935 7.86144 3.08372 7.43083L31.5943 0.138248C32.6986 -0.160401 33.8237 0.0201777 34.7474 0.554967C35.6712 1.08976 36.3865 1.97181 36.6852 3.07612C36.7755 3.40255 36.831 3.81232 36.831 4.15264V10.8132H37.5881H38.3451C40.4634 10.8132 42.3387 12.2439 42.8943 14.2859C43.7208 17.196 44.1375 20.3283 44.1375 23.4537C44.1375 26.5791 43.7208 29.7114 42.8943 32.6215C42.3317 34.6704 40.4704 36.0942 38.3451 36.0942H4.71587V36.1081ZM11.4876 10.8132H20.3567L31.886 7.72254V5.35418L11.557 10.7993L11.4876 10.8132ZM13.8906 17.6335L8.37606 15.7097V31.0866L13.8906 29.1697V17.6335ZM21.9681 17.6335L30.2608 15.4944V15.5013C31.4623 20.3839 31.4623 26.4124 30.2608 31.288V31.295L21.9681 29.1697V29.1141C22.5653 25.6276 22.5653 21.1826 21.9681 17.703V17.6335ZM3.05594 14.9735V31.3922C3.05594 32.309 3.79909 33.0521 4.71587 33.0521H38.3382C39.0952 33.0521 39.7481 32.5521 39.9495 31.8228L39.9564 31.802C40.7065 29.1697 41.0816 26.3221 41.0816 23.4676C41.0816 20.6131 40.7065 17.7655 39.9564 15.1332L39.9495 15.1124C39.755 14.3831 39.1022 13.883 38.3451 13.883H4.16025C3.8616 13.883 3.58379 14.0081 3.38932 14.2025C3.18096 14.397 3.05594 14.6679 3.05594 14.9735Z" fill="#FFD919"/>
</g>
<defs>
<clipPath id="clip0">
<rect width="165" height="40.4704" fill="white"/>
</clipPath>
</defs>
</svg>
